<svg width="40" height="40" viewBox="0 0 40 40" fill="none" xmlns="http://www.w3.org/2000/svg">
<path d="M31.6954 14.4102C29.9064 9.6875 25.3478 6.32812 20.0079 6.32812C14.6681 6.32812 10.1095 9.68359 8.32043 14.4062C4.95715 15.293 2.48058 18.3672 2.50011 22.0156C2.52355 26.0938 5.68761 29.4102 9.67199 29.7656C9.85558 29.7812 10.0118 29.6367 10.0118 29.4531V27.0938C10.0118 26.9375 9.89465 26.8047 9.7384 26.7852C8.68371 26.6523 7.68761 26.1914 6.92199 25.4375C5.98449 24.5195 5.46886 23.2852 5.46886 21.9766C5.46886 20.8828 5.82433 19.8516 6.4923 18.9922C7.14465 18.1563 8.06261 17.5508 9.07433 17.2852L10.5548 16.8945L11.0978 15.4609C11.4337 14.5703 11.9025 13.7344 12.4923 12.9805C13.0743 12.2305 13.7657 11.5742 14.5392 11.0273C16.1446 9.89844 18.0353 9.30078 20.0079 9.30078C21.9806 9.30078 23.8712 9.89844 25.4767 11.0312C26.254 11.5781 26.9415 12.2344 27.5236 12.9844C28.1134 13.7383 28.5821 14.5742 28.9181 15.4648L29.4571 16.8945L30.9337 17.2852C33.0509 17.8477 34.5314 19.7734 34.5314 21.9727C34.5314 23.2852 34.0157 24.5156 33.0782 25.4336C32.3165 26.1836 31.3243 26.6484 30.2696 26.7812C30.1134 26.8008 30.0001 26.9336 30.0001 27.0898V29.4531C30.0001 29.6367 30.1603 29.7812 30.3439 29.7656C34.3165 29.4062 37.4728 26.0938 37.5001 22.0234C37.5236 18.375 35.0509 15.3008 31.6954 14.4102Z" fill="#1E7F43"/>
<path d="M14.7227 25.6406C14.793 24.332 15.336 23.1133 16.2657 22.1797C17.2579 21.1836 18.6094 20.625 20.0157 20.625C21.4298 20.625 22.7618 21.1758 23.7657 22.1797C23.8204 22.2344 23.8712 22.2891 23.9258 22.3477L22.9493 23.1133C22.9028 23.1493 22.8673 23.1977 22.8471 23.2529C22.8268 23.3081 22.8226 23.368 22.8348 23.4255C22.8471 23.483 22.8753 23.5359 22.9163 23.5781C22.9573 23.6203 23.0093 23.6501 23.0665 23.6641L26.9024 24.6016C27.0977 24.6484 27.2891 24.5 27.2891 24.3008L27.3087 20.3437C27.3087 20.082 27.0118 19.9336 26.8048 20.0977L25.8985 20.8086C24.4688 19.168 22.3673 18.1289 20.0196 18.1289C15.8243 18.1289 12.4024 21.4531 12.2305 25.6172C12.2227 25.793 12.3633 25.9414 12.543 25.9414H14.4141C14.5782 25.9375 14.7149 25.8086 14.7227 25.6406ZM27.461 25.9375H25.5899C25.4258 25.9375 25.2891 26.0664 25.2774 26.2344C25.2071 27.543 24.6641 28.7617 23.7344 29.6953C22.7423 30.6914 21.3907 31.25 19.9844 31.25C18.5704 31.25 17.2383 30.6992 16.2344 29.6953C16.1798 29.6406 16.129 29.5859 16.0743 29.5273L17.0508 28.7617C17.0974 28.7257 17.1328 28.6773 17.153 28.6221C17.1733 28.5669 17.1775 28.507 17.1653 28.4495C17.1531 28.392 17.1248 28.3391 17.0838 28.2969C17.0429 28.2547 16.9908 28.2249 16.9337 28.2109L13.0977 27.2734C12.9024 27.2266 12.711 27.375 12.711 27.5742L12.6954 31.5352C12.6954 31.7969 12.9923 31.9453 13.1993 31.7812L14.1055 31.0703C15.5352 32.7109 17.6368 33.75 19.9844 33.75C24.1798 33.75 27.6016 30.4258 27.7735 26.2617C27.7813 26.0859 27.6407 25.9375 27.461 25.9375Z" fill="#1E7F43"/>
</svg>
