<svg width="21" height="21" viewBox="0 0 21 21" fill="none" xmlns="http://www.w3.org/2000/svg">
<path d="M19.3144 14.25V12.9375H17.9356C17.8505 12.5269 17.6874 12.1363 17.4553 11.7871L18.4331 10.8093L17.5051 9.88134L16.5273 10.8592C16.1781 10.627 15.7876 10.4639 15.3769 10.3788V9H14.0644V10.3788C13.6538 10.4639 13.2633 10.627 12.914 10.8592L11.9362 9.88134L11.0083 10.8093L11.9861 11.7871C11.7539 12.1363 11.5908 12.5269 11.5057 12.9375H10.1269V14.25H11.5057C11.5908 14.6606 11.7539 15.0512 11.9861 15.4004L11.0083 16.3782L11.9362 17.3062L12.914 16.3283C13.2633 16.5605 13.6538 16.7236 14.0644 16.8087V18.1875H15.3769V16.8087C15.7876 16.7236 16.1781 16.5605 16.5273 16.3283L17.5051 17.3062L18.4331 16.3782L17.4553 15.4004C17.6874 15.0512 17.8505 14.6606 17.9356 14.25H19.3144ZM14.7207 15.5625C14.3313 15.5625 13.9507 15.447 13.6269 15.2307C13.3031 15.0144 13.0508 14.7069 12.9018 14.3472C12.7528 13.9874 12.7138 13.5916 12.7898 13.2097C12.8657 12.8278 13.0532 12.477 13.3286 12.2016C13.6039 11.9263 13.9547 11.7388 14.3366 11.6628C14.7185 11.5869 15.1143 11.6259 15.4741 11.7749C15.8338 11.9239 16.1413 12.1762 16.3576 12.5C16.574 12.8237 16.6894 13.2044 16.6894 13.5938C16.6889 14.1157 16.4813 14.6162 16.1122 14.9853C15.7431 15.3544 15.2427 15.562 14.7207 15.5625Z" fill="#8E8E93"/>
<path d="M18.1894 3H2.43942C2.09133 3 1.75749 3.13828 1.51134 3.38442C1.2652 3.63056 1.12692 3.9644 1.12692 4.3125V17.4375C1.12692 17.7856 1.2652 18.1194 1.51134 18.3656C1.75749 18.6117 2.09133 18.75 2.43942 18.75H9.00192V17.4375H2.43942V8.25H18.1894V10.2188H19.5019V4.3125C19.5019 3.9644 19.3636 3.63056 19.1175 3.38442C18.8714 3.13828 18.5375 3 18.1894 3ZM18.1894 6.9375H2.43942V4.3125H18.1894V6.9375Z" fill="#8E8E93"/>
<path d="M13.7815 8.67383C14.1439 8.67383 14.4377 8.38002 14.4377 8.01758C14.4377 7.65514 14.1439 7.36133 13.7815 7.36133C13.4191 7.36133 13.1252 7.65514 13.1252 8.01758C13.1252 8.38002 13.4191 8.67383 13.7815 8.67383Z" fill="#8E8E93"/>
<path d="M10.5002 18.5176C10.8627 18.5176 11.1565 18.2238 11.1565 17.8613C11.1565 17.4989 10.8627 17.2051 10.5002 17.2051C10.1378 17.2051 9.84399 17.4989 9.84399 17.8613C9.84399 18.2238 10.1378 18.5176 10.5002 18.5176Z" fill="#8E8E93"/>
<path d="M17.719 8.67383C18.0814 8.67383 18.3752 8.38002 18.3752 8.01758C18.3752 7.65514 18.0814 7.36133 17.719 7.36133C17.3566 7.36133 17.0627 7.65514 17.0627 8.01758C17.0627 8.38002 17.3566 8.67383 17.719 8.67383Z" fill="#8E8E93"/>
</svg>
