<svg width="24" height="24" viewBox="0 0 24 24" fill="none" xmlns="http://www.w3.org/2000/svg">
<path d="M2.12695 21.561V19.561C2.12695 19.561 7.12695 17.561 12.127 17.561C17.127 17.561 22.127 19.561 22.127 19.561V21.561H2.12695ZM11.427 8.66097C10.227 4.76097 4.12695 5.66097 4.12695 5.66097C4.12695 5.66097 4.32695 13.461 10.027 12.261C9.62695 9.36097 8.12695 8.56097 8.12695 8.56097C10.927 8.56097 11.127 11.961 11.127 11.961V16.561H13.127V12.361C13.127 12.361 13.127 8.46097 16.127 7.46097C16.127 7.46097 14.127 10.461 14.127 12.461C21.127 13.161 21.127 3.56097 21.127 3.56097C21.127 3.56097 12.227 2.56097 11.427 8.66097Z" fill="#8E8E93"/>
</svg>
