<svg width="32" height="26" viewBox="0 0 32 26" fill="none" xmlns="http://www.w3.org/2000/svg">
<path d="M31.9266 1.65038L31.7232 0L29.6891 0.523929C26.203 1.45986 22.4803 1.74707 18.8236 1.36222C14.981 0.901435 11.0481 1.31089 7.50038 2.54106C5.61965 3.15988 3.9691 4.13238 2.69901 5.37003C1.42891 6.60767 0.579624 8.07114 0.228459 9.6272C-0.226877 11.6374 0.000913761 13.7045 0.889543 15.6262C1.46173 14.6282 2.13035 13.665 2.88974 12.7446C4.61229 10.7862 6.99911 9.23187 9.78875 8.25189C12.4762 7.30374 15.4137 6.85515 18.3659 6.94206C15.5557 7.27485 12.8658 8.05543 10.4668 9.23426C9.31006 9.7962 8.25059 10.4696 7.31392 11.2383C6.41853 12.0069 5.62891 12.8453 4.95775 13.74C3.69773 15.6106 2.80102 17.6143 2.29646 19.6866C1.75268 21.7658 1.45762 23.8791 1.41502 26H4.80519C4.96628 24.0981 5.30047 22.2072 5.80529 20.3416C8.15711 21.3229 10.7945 21.8234 13.4671 21.7955C15.9597 21.7941 18.4266 21.4067 20.7221 20.6559C33.6217 16.399 31.9266 2.2398 31.9266 1.65038Z" fill="#1E7F43"/>
</svg>
