<svg width="41" height="41" viewBox="0 0 41 41" fill="none" xmlns="http://www.w3.org/2000/svg">
<path d="M20.3495 0.00683594C20.5154 0.0122818 20.5154 0.0122818 20.7152 0.079971C20.8251 0.247908 20.9049 0.396476 20.9857 0.577918C21.0365 0.685519 21.0873 0.793114 21.1381 0.900705C21.1645 0.957793 21.1908 1.01488 21.218 1.0737C21.3284 1.31063 21.4439 1.54495 21.5595 1.77942C21.7133 2.09158 21.8654 2.40457 22.0179 2.7174C22.0501 2.78347 22.0823 2.84954 22.1155 2.91761C22.5389 3.78607 22.9598 4.65561 23.3752 5.52796C23.6065 6.01357 23.8407 6.49779 24.0748 6.98209C24.4302 7.71755 24.7846 8.45351 25.1376 9.19012C25.3277 9.58646 25.5184 9.98247 25.7101 10.378C26.1922 11.3732 26.6684 12.3707 27.1369 13.3724C27.419 13.9751 27.7047 14.5759 27.9981 15.1732C28.026 15.23 28.0538 15.2868 28.0825 15.3454C28.216 15.6175 28.3501 15.8894 28.4851 16.1607C29.1748 17.556 29.6108 18.8748 29.6011 20.4435C29.6009 20.5014 29.6007 20.5592 29.6005 20.6188C29.5856 23.1364 28.6077 25.3295 26.8212 27.1033C25.4888 28.3693 23.7752 29.18 21.9585 29.4071C21.9585 33.1962 21.9585 36.9854 21.9585 40.8893C21.5869 40.9358 21.2622 40.9718 20.8946 40.9722C20.7657 40.9723 20.7657 40.9723 20.6343 40.9725C20.5464 40.9722 20.4584 40.9719 20.3678 40.9716C20.2787 40.9719 20.1896 40.9722 20.0978 40.9725C20.0123 40.9724 19.9268 40.9723 19.8387 40.9722C19.7612 40.9721 19.6837 40.972 19.6039 40.9719C19.3987 40.9625 19.3987 40.9625 19.1062 40.8893C19.1062 37.1002 19.1062 33.3111 19.1062 29.4071C18.9372 29.4071 18.7683 29.4071 18.5942 29.4071C18.3586 29.3651 18.1328 29.2944 17.904 29.2243C17.8399 29.2047 17.7758 29.1851 17.7097 29.165C16.4003 28.7481 15.1895 28.0256 14.2061 27.0668C14.1443 27.008 14.0825 26.9491 14.0187 26.8885C13.9599 26.8267 13.9011 26.7648 13.8405 26.7011C13.7927 26.6521 13.7449 26.6031 13.6956 26.5526C12.7671 25.5681 12.0383 24.2919 11.7195 22.9712C11.694 22.8864 11.6685 22.8015 11.6421 22.7141C11.0553 20.6333 11.4082 18.4338 12.3476 16.526C12.4634 16.2905 12.5769 16.0539 12.6903 15.8171C12.8643 15.4543 13.0393 15.092 13.2151 14.7301C13.4524 14.2416 13.688 13.7523 13.9227 13.2626C13.9586 13.1879 13.9944 13.1132 14.0313 13.0362C14.208 12.668 14.3845 12.2996 14.561 11.9313C15.3747 10.2331 16.1978 8.5394 17.0232 6.8468C17.5383 5.79053 18.0503 4.73293 18.5577 3.67298C19.6909 1.30884 19.6909 1.30884 20.2763 0.153106C20.3005 0.104837 20.3246 0.0565678 20.3495 0.00683594Z" fill="#344E2A"/>
<path d="M20.2763 0.00596355C20.23 0.336848 20.0996 0.612249 19.9523 0.908153C19.927 0.959872 19.9017 1.01159 19.8757 1.06488C19.7932 1.23318 19.7102 1.4012 19.6272 1.56922C19.5699 1.68615 19.5126 1.8031 19.4553 1.92008C19.3696 2.09524 19.2838 2.27039 19.1979 2.44547C18.977 2.89556 18.7593 3.34711 18.5439 3.79984C17.5164 5.95493 16.4716 8.10198 15.425 10.2479C14.8997 11.3249 14.3766 12.4028 13.8616 13.4848C13.7598 13.6978 13.6574 13.9105 13.5547 14.123C13.3318 14.5849 13.1102 15.0475 12.8897 15.5106C12.8503 15.5933 12.8108 15.6759 12.7702 15.7611C12.6508 16.0124 12.5324 16.2642 12.4143 16.5162C12.3783 16.5918 12.3423 16.6675 12.3052 16.7454C11.7512 17.9353 11.4569 19.166 11.4635 20.4792C11.4637 20.5281 11.4638 20.5769 11.464 20.6272C11.4733 22.0821 11.7932 23.358 12.4509 24.6525C12.505 24.7646 12.505 24.7646 12.5603 24.879C12.8453 25.4402 13.2269 25.9205 13.621 26.4077C13.6619 26.4592 13.7029 26.5107 13.745 26.5637C15.0547 28.1596 17.0616 29.012 19.033 29.4062C19.033 33.1712 19.033 36.9362 19.033 40.8153C18.2859 40.8153 17.6616 40.8102 16.9487 40.669C16.6953 40.6208 16.4418 40.5725 16.1807 40.5228C16.1807 39.6298 16.1807 38.7368 16.1807 37.8168C15.7946 37.7202 15.4084 37.6237 15.0106 37.5242C14.7067 37.4173 14.4117 37.3086 14.1147 37.186C14.0368 37.1542 13.959 37.1224 13.8788 37.0897C12.2505 36.4143 10.7504 35.5632 9.37919 34.4526C9.31376 34.4012 9.24833 34.3498 9.18092 34.2969C8.38749 33.6651 7.60501 32.9754 6.96573 32.1854C6.89389 32.0997 6.82199 32.0141 6.75004 31.9286C5.92277 30.937 5.22513 29.8915 4.62541 28.748C4.58129 28.6641 4.58129 28.6641 4.53628 28.5785C3.73835 27.0385 3.22672 25.3953 2.87017 23.7017C2.84585 23.5944 2.84585 23.5944 2.82103 23.4849C1.93467 19.2344 3.02077 14.5008 5.34676 10.8836C5.49141 10.667 5.64237 10.4555 5.79557 10.2449C5.82938 10.1975 5.86319 10.1502 5.89802 10.1014C6.4033 9.39572 6.94543 8.74542 7.55081 8.12395C7.59214 8.08113 7.63347 8.0383 7.67605 7.99418C8.21469 7.43754 8.76236 6.91265 9.37919 6.44185C9.43687 6.39714 9.43687 6.39714 9.49571 6.35154C10.9724 5.2114 12.5917 4.28528 14.3387 3.62615C14.3857 3.60832 14.4327 3.5905 14.4812 3.57214C14.68 3.49961 14.8684 3.44267 15.0777 3.4096C15.288 3.37588 15.4175 3.34192 15.5957 3.22391C15.8076 2.91656 15.9518 2.59066 16.0973 2.24787C16.2274 1.94523 16.3665 1.64682 16.5044 1.34773C16.5777 1.18866 16.6504 1.02936 16.7225 0.869818C16.7556 0.796772 16.7886 0.723726 16.8227 0.648466C16.8523 0.582762 16.8819 0.517058 16.9124 0.449363C16.9852 0.298504 16.9852 0.298504 17.0584 0.225369C18.127 0.0276985 19.1937 -0.00570577 20.2763 0.00596355Z" fill="#FDFDFC"/>
<path d="M20.7151 0.00642169C21.4048 -0.00841173 22.0853 -0.00158584 22.772 0.0704149C22.8282 0.0761539 22.8844 0.0818929 22.9422 0.0878059C23.0502 0.100053 23.158 0.114157 23.2655 0.130248C23.4205 0.155075 23.4205 0.155075 23.576 0.160423C23.7499 0.180206 23.8562 0.207293 24.0062 0.298962C24.1982 0.564308 24.3207 0.853705 24.4495 1.15373C24.4881 1.2366 24.5267 1.31946 24.5665 1.40484C24.728 1.75457 24.8824 2.0988 24.9895 2.4693C25.1077 2.85243 25.218 3.12652 25.5779 3.32464C26.0418 3.52562 26.5221 3.6702 27.0061 3.81398C27.4673 3.95909 27.8895 4.17894 28.3211 4.39452C28.4118 4.43665 28.5025 4.47854 28.5934 4.52023C31.0141 5.65099 33.2592 7.58264 34.8302 9.73338C34.8929 9.81756 34.9557 9.90175 35.0184 9.98593C35.7211 10.9391 36.3041 11.9522 36.8048 13.0245C36.8316 13.0816 36.8584 13.1387 36.886 13.1975C38.6347 16.9727 38.9803 21.552 37.6824 25.5306C37.6614 25.596 37.6404 25.6615 37.6187 25.729C36.9905 27.6642 36.1453 29.4674 34.9033 31.0888C34.8556 31.1511 34.8079 31.2134 34.7587 31.2777C34.6147 31.4611 34.4675 31.641 34.3182 31.8202C34.2693 31.879 34.2693 31.879 34.2194 31.939C33.5705 32.7162 32.9015 33.4388 32.1073 34.0719C31.9746 34.1779 31.8433 34.2856 31.7136 34.3953C30.0707 35.7827 28.1178 36.7622 26.1042 37.4881C26.0575 37.505 26.0108 37.522 25.9627 37.5394C25.5778 37.672 25.2197 37.7354 24.8107 37.8172C24.8107 38.7102 24.8107 39.6032 24.8107 40.5232C23.5439 40.7766 23.5439 40.7766 22.9731 40.8295C22.9149 40.8355 22.8566 40.8415 22.7966 40.8476C22.5134 40.8757 22.2444 40.8889 21.9584 40.8889C21.9584 37.0998 21.9584 33.3107 21.9584 29.4067C22.5376 29.2619 22.5376 29.2619 23.1285 29.1142C24.3625 28.7515 25.4243 28.172 26.4196 27.3589C26.4817 27.3089 26.5439 27.2588 26.6079 27.2072C28.1549 25.8934 29.2629 23.8131 29.4913 21.8007C29.5941 20.4606 29.6327 19.0422 29.1256 17.7782C29.1072 17.7305 29.0887 17.6828 29.0697 17.6337C28.9119 17.2341 28.7278 16.8483 28.5405 16.4618C28.4991 16.376 28.4576 16.2901 28.4149 16.2017C28.2188 15.7959 28.0221 15.3904 27.8245 14.9854C27.4992 14.3184 27.1822 13.6484 26.8721 12.9742C26.5627 12.302 26.2426 11.6369 25.9088 10.9765C25.6055 10.3756 25.3153 9.76891 25.0261 9.16116C24.7871 8.65921 24.5452 8.15868 24.3033 7.65818C23.9465 6.91985 23.5907 6.18102 23.2361 5.44163C22.928 4.79915 22.6188 4.15718 22.3095 3.51528C22.0129 2.89956 21.718 2.28305 21.4242 1.66599C21.2177 1.23335 21.0057 0.804555 20.7828 0.380096C20.7151 0.225827 20.7151 0.225827 20.7151 0.00642169Z" fill="#FDFDFC"/>
<path d="M24.2257 0.37207C24.8493 0.401967 25.4258 0.55675 26.022 0.733175C26.0714 0.747641 26.1208 0.762107 26.1717 0.777011C29.219 1.67429 31.9557 3.19255 34.2971 5.34211C34.4668 5.4973 34.4668 5.4973 34.6685 5.64779C34.7486 5.71525 34.7486 5.71525 34.8302 5.78406C34.8302 5.83233 34.8302 5.8806 34.8302 5.93033C34.8738 5.94928 34.9173 5.96823 34.9622 5.98776C35.1357 6.08376 35.2255 6.17591 35.3513 6.32801C35.5488 6.56252 35.7529 6.78662 35.9638 7.00908C37.2766 8.45885 38.3256 10.1553 39.1452 11.9274C39.169 11.9775 39.1928 12.0276 39.2173 12.0792C40.4323 14.6439 41.0031 17.4658 40.9967 20.2963C40.9964 20.5061 40.9982 20.7159 41 20.9257C41.003 21.8137 40.9286 22.6669 40.7811 23.5424C40.7581 23.6785 40.7369 23.8149 40.716 23.9514C39.9967 28.5714 37.4281 32.9664 33.8795 35.9888C33.8173 36.0429 33.755 36.0971 33.6909 36.1528C31.816 37.7563 29.6219 38.976 27.2973 39.7919C27.1989 39.8289 27.1005 39.8661 27.0022 39.9036C25.5517 40.4501 25.5517 40.4501 24.8107 40.4501C24.8107 39.5812 24.8107 38.7124 24.8107 37.8172C25.0988 37.7252 25.3869 37.6332 25.6838 37.5384C28.1979 36.7102 30.4368 35.4814 32.4168 33.7216C32.4539 33.6891 32.491 33.6565 32.5292 33.6229C35.5405 30.9713 37.4944 27.2094 38.1213 23.2633C38.1322 23.1996 38.1432 23.1359 38.1545 23.0703C38.4311 21.4432 38.4766 19.7003 38.1944 18.0707C38.1761 17.9408 38.158 17.8108 38.1402 17.6808C37.6736 14.4272 36.2424 11.4125 34.0989 8.92887C34.0508 8.87268 34.0027 8.81649 33.9532 8.7586C32.2987 6.87308 30.2894 5.33969 28.0058 4.28937C27.9454 4.26154 27.8849 4.23372 27.8227 4.20505C27.4686 4.04779 27.1161 3.91885 26.7445 3.80885C25.3688 3.39424 25.3688 3.39424 25.0945 2.90448C25.0068 2.70509 24.9358 2.50335 24.8702 2.29576C24.7362 1.91628 24.5323 1.56271 24.3501 1.20459C24.1484 0.787021 24.1484 0.787021 24.1711 0.514627C24.1891 0.467583 24.2071 0.420539 24.2257 0.37207Z" fill="#354E2B"/>
<path d="M16.912 0.372426C16.8634 0.703695 16.7389 0.991397 16.6021 1.29404C16.5668 1.37284 16.5668 1.37284 16.5307 1.45323C16.4809 1.56384 16.4309 1.67435 16.3808 1.78478C16.3043 1.95355 16.2291 2.12286 16.154 2.29222C16.1054 2.39986 16.0566 2.50747 16.0079 2.61504C15.9856 2.66556 15.9633 2.71607 15.9404 2.76811C15.8157 3.03879 15.7122 3.22304 15.4493 3.37096C15.2819 3.42783 15.1124 3.4789 14.942 3.52638C12.3088 4.30545 9.95557 5.86962 7.98957 7.75907C7.94968 7.79696 7.90979 7.83486 7.86869 7.87391C5.18798 10.4295 3.50643 13.9415 2.87012 17.5592C2.85306 17.6539 2.83599 17.7487 2.81841 17.8463C2.78163 18.0672 2.75038 18.2875 2.72385 18.5099C2.71574 18.5771 2.70764 18.6444 2.69928 18.7136C2.27138 23.1025 3.56412 27.9218 6.36689 31.3588C6.51615 31.5385 6.66721 31.7165 6.81941 31.8936C6.86825 31.9511 6.91708 32.0086 6.9674 32.0679C7.08695 32.2065 7.20871 32.3428 7.33136 32.4787C7.41677 32.5754 7.41677 32.5754 7.50391 32.6741C7.86489 33.0789 8.22896 33.4513 8.64779 33.7951C8.73122 33.8657 8.81464 33.9363 8.89805 34.0068C10.9125 35.6946 13.2949 37.0024 15.8373 37.6887C16.0344 37.7444 16.0344 37.7444 16.1807 37.8176C16.1807 38.6864 16.1807 39.5553 16.1807 40.4504C14.4956 40.2398 12.9429 39.5796 11.4269 38.8415C11.3427 38.8011 11.3427 38.8011 11.2568 38.7599C9.59715 37.9571 8.06281 36.8445 6.72114 35.5847C6.56523 35.4398 6.40708 35.3023 6.24347 35.1664C5.47899 34.5005 4.81834 33.7083 4.21044 32.8999C4.11236 32.7699 4.01281 32.641 3.91315 32.5121C3.41309 31.8572 2.99401 31.1676 2.59494 30.4473C2.51458 30.3029 2.43248 30.1597 2.3496 30.0167C0.123198 26.0557 -0.432185 21.2601 0.310394 16.8278C0.326798 16.7279 0.326798 16.7279 0.343534 16.6259C0.904491 13.331 2.45729 10.1954 4.55223 7.6128C4.63623 7.50645 4.63623 7.50645 4.72192 7.39796C5.15919 6.86063 5.6365 6.36719 6.12463 5.87584C6.18796 5.81183 6.2513 5.74781 6.31656 5.68186C6.7541 5.24642 7.2132 4.85099 7.69703 4.46799C7.74075 4.43268 7.78447 4.39738 7.82952 4.361C9.94034 2.65868 12.4514 1.39523 15.0702 0.70764C15.2262 0.665966 15.3814 0.622028 15.5365 0.577261C16.0029 0.444248 16.4245 0.332629 16.912 0.372426Z" fill="#354E2B"/>
<path d="M27.1509 7.02734C27.5233 7.13525 27.8345 7.29731 28.1656 7.49358C28.2468 7.54168 28.2468 7.54168 28.3297 7.59075C31.1779 9.31257 33.3762 11.9142 34.6106 14.9991C34.66 15.1211 34.66 15.1211 34.7103 15.2456C34.9015 15.7481 35.0424 16.255 35.1683 16.7772C35.1825 16.836 35.1967 16.8948 35.2113 16.9555C35.2578 17.1561 35.3004 17.3572 35.342 17.5588C35.3614 17.6501 35.3807 17.7415 35.4007 17.8356C35.5597 18.6259 35.5968 19.3915 35.5888 20.1962C35.5885 20.2585 35.5881 20.3207 35.5877 20.3848C35.5648 23.7358 34.5998 26.8704 32.5629 29.5529C32.5133 29.6203 32.4637 29.6877 32.4126 29.7572C31.5181 30.9158 30.4024 31.943 29.1986 32.7709C29.1461 32.8074 29.0935 32.8439 29.0393 32.8815C26.1047 34.8918 26.1047 34.8918 24.8105 34.8918C24.8105 33.7816 24.8105 32.6714 24.8105 31.5276C25.4622 31.238 25.4622 31.238 26.127 30.9425C28.9464 29.289 30.9314 26.9342 31.9229 23.7981C31.9694 23.6199 32.0121 23.4432 32.0509 23.2633C32.0707 23.1718 32.0707 23.1718 32.0909 23.0783C32.4611 21.2862 32.529 19.4089 32.0509 17.6319C32.0376 17.5798 32.0242 17.5278 32.0105 17.4741C31.7358 16.4358 31.229 15.4857 30.7537 14.5284C30.4617 13.9401 30.1734 13.35 29.8847 12.7601C29.8143 12.6162 29.7438 12.4724 29.6733 12.3285C29.2208 11.4052 28.7767 10.4791 28.3485 9.54425C28.0514 8.89771 27.7365 8.2609 27.4144 7.62648C27.3797 7.5582 27.3451 7.48993 27.3094 7.41959C27.2787 7.35947 27.248 7.29935 27.2163 7.23741C27.1509 7.10048 27.1509 7.10048 27.1509 7.02734Z" fill="#93C348"/>
<path d="M13.6942 7.02734C13.7666 7.06355 13.7666 7.06355 13.8405 7.10048C13.8069 7.16702 13.8069 7.16702 13.7727 7.23491C13.2955 8.18219 12.8271 9.13289 12.3715 10.0907C12.1319 10.5943 11.8892 11.0963 11.6464 11.5983C11.4028 12.102 11.1593 12.6058 10.9188 13.111C10.8686 13.2165 10.8686 13.2165 10.8173 13.3241C10.7518 13.4619 10.6863 13.5997 10.621 13.7376C10.4603 14.0752 10.2956 14.4097 10.122 14.7408C9.4383 16.0499 8.92305 17.406 8.72102 18.8752C8.70764 18.9633 8.69425 19.0513 8.68046 19.142C8.55144 20.2033 8.59172 21.3374 8.79416 22.3857C8.8067 22.4722 8.81924 22.5586 8.83216 22.6477C9.27726 25.482 10.9673 28.2488 13.2794 29.9498C14.0968 30.5323 14.9599 31.0107 15.8748 31.4207C16.1077 31.5276 16.1077 31.5276 16.1808 31.6007C16.1876 31.704 16.1894 31.8076 16.1891 31.9111C16.1891 31.977 16.1891 32.0429 16.1891 32.1108C16.1887 32.1824 16.1883 32.254 16.1879 32.3278C16.1878 32.4372 16.1878 32.4372 16.1876 32.5488C16.1872 32.7828 16.1863 33.0168 16.1854 33.2508C16.185 33.409 16.1847 33.5673 16.1844 33.7255C16.1836 34.1143 16.1823 34.503 16.1808 34.8918C15.6692 34.7863 15.2148 34.6362 14.7364 34.4256C14.6635 34.3935 14.5906 34.3615 14.5155 34.3286C13.3757 33.8164 12.3061 33.1928 11.3222 32.4216C11.2203 32.342 11.1168 32.2643 11.0131 32.1869C9.95882 31.3722 8.9598 30.3614 8.20908 29.2604C8.17721 29.214 8.14535 29.1676 8.11252 29.1198C7.27651 27.8941 6.65178 26.6378 6.1613 25.238C6.13358 25.1601 6.13358 25.1601 6.1053 25.0806C4.88844 21.6185 5.18101 17.4932 6.74638 14.1946C8.14555 11.2838 10.2669 9.04059 13.036 7.39302C13.1068 7.35041 13.1776 7.30779 13.2505 7.26389C13.5728 7.0762 13.5728 7.0762 13.6942 7.02734Z" fill="#92C347"/>
</svg>
