<svg width="35" height="35" viewBox="0 0 35 35" fill="none" xmlns="http://www.w3.org/2000/svg">
<path fill-rule="evenodd" clip-rule="evenodd" d="M25.1562 15.3125C27.767 15.3125 30.2708 16.3496 32.1168 18.1957C33.9629 20.0417 35 22.5455 35 25.1562C35 27.767 33.9629 30.2708 32.1168 32.1168C30.2708 33.9629 27.767 35 25.1562 35C22.5455 35 20.0417 33.9629 18.1957 32.1168C16.3496 30.2708 15.3125 27.767 15.3125 25.1562C15.3125 22.5455 16.3496 20.0417 18.1957 18.1957C20.0417 16.3496 22.5455 15.3125 25.1562 15.3125ZM30.3056 22.1944C30.1005 21.9893 29.8224 21.8741 29.5323 21.8741C29.2423 21.8741 28.9642 21.9893 28.7591 22.1944L24.0625 26.8931L21.5556 24.3862C21.4541 24.2846 21.3335 24.2039 21.2008 24.1488C21.068 24.0937 20.9257 24.0653 20.782 24.0652C20.6383 24.0651 20.496 24.0933 20.3632 24.1482C20.2304 24.2031 20.1097 24.2836 20.008 24.3852C19.9063 24.4867 19.8256 24.6073 19.7705 24.74C19.7154 24.8728 19.687 25.015 19.6869 25.1588C19.6868 25.3025 19.715 25.4448 19.7699 25.5776C19.8248 25.7104 19.9053 25.8311 20.0069 25.9328L23.2881 29.2141C23.4932 29.4191 23.7714 29.5343 24.0614 29.5343C24.3514 29.5343 24.6296 29.4191 24.8347 29.2141L30.3034 23.7453C30.5085 23.5402 30.6237 23.2621 30.6237 22.972C30.6237 22.682 30.5085 22.4039 30.3034 22.1987" fill="#F8FAF9"/>
<path d="M28.4375 2.1875C29.5978 2.1875 30.7106 2.64844 31.5311 3.46891C32.3516 4.28938 32.8125 5.40218 32.8125 6.5625V15.8813C32.1373 15.3271 31.4039 14.8481 30.625 14.4528V6.5625C30.625 5.98234 30.3945 5.42594 29.9843 5.0157C29.5741 4.60547 29.0177 4.375 28.4375 4.375H6.5625C5.98234 4.375 5.42594 4.60547 5.0157 5.0157C4.60547 5.42594 4.375 5.98234 4.375 6.5625V21.875C4.375 22.4552 4.60547 23.0116 5.0157 23.4218C5.42594 23.832 5.98234 24.0625 6.5625 24.0625H13.1797C13.1462 24.4262 13.128 24.7911 13.125 25.1562C13.1265 25.5252 13.1447 25.8898 13.1797 26.25H13.125V30.625H14.4528C14.8531 31.4059 15.3278 32.1409 15.8834 32.8125H7.65625C7.36617 32.8125 7.08797 32.6973 6.88285 32.4921C6.67773 32.287 6.5625 32.0088 6.5625 31.7188C6.5625 31.4287 6.67773 31.1505 6.88285 30.9454C7.08797 30.7402 7.36617 30.625 7.65625 30.625H10.9375V26.25H6.5625C5.40218 26.25 4.28938 25.7891 3.46891 24.9686C2.64844 24.1481 2.1875 23.0353 2.1875 21.875V6.5625C2.1875 5.40218 2.64844 4.28938 3.46891 3.46891C4.28938 2.64844 5.40218 2.1875 6.5625 2.1875H28.4375Z" fill="#F8FAF9"/>
</svg>
