<svg width="23" height="23" viewBox="0 0 23 23" fill="none" xmlns="http://www.w3.org/2000/svg">
<g clip-path="url(#clip0_30_206)">
<path d="M20.9876 17.9717L20.7704 17.78C20.1543 17.2308 19.6149 16.6012 19.1668 15.9081C18.6771 14.9516 18.3838 13.9067 18.3043 12.835V9.67893C18.3085 7.99585 17.698 6.36915 16.5874 5.10447C15.4769 3.83978 13.9427 3.02417 12.2732 2.81087V1.98671C12.2732 1.7605 12.1833 1.54356 12.0234 1.3836C11.8634 1.22365 11.6465 1.13379 11.4203 1.13379C11.194 1.13379 10.9771 1.22365 10.8172 1.3836C10.6572 1.54356 10.5673 1.7605 10.5673 1.98671V2.82365C8.91278 3.05233 7.39716 3.87287 6.30118 5.1333C5.2052 6.39373 4.60314 8.00865 4.60651 9.67893V12.835C4.527 13.9067 4.23374 14.9516 3.74401 15.9081C3.30374 16.5996 2.77302 17.2292 2.16595 17.78L1.94873 17.9717V19.7734H20.9876V17.9717Z" fill="#8E8E93"/>
<path d="M9.78784 20.4443C9.84387 20.8493 10.0445 21.2203 10.3528 21.4889C10.6611 21.7574 11.0561 21.9054 11.4649 21.9054C11.8738 21.9054 12.2688 21.7574 12.577 21.4889C12.8853 21.2203 13.086 20.8493 13.142 20.4443H9.78784Z" fill="#8E8E93"/>
</g>
<defs>
<clipPath id="clip0_30_206">
<rect width="23" height="23" fill="white"/>
</clipPath>
</defs>
</svg>
