<svg width="42" height="42" viewBox="0 0 42 42" fill="none" xmlns="http://www.w3.org/2000/svg">
<path d="M28 7H26.25V3.5H22.75V7H19.25V3.5H15.75V7H14C10.1325 7 7 10.1325 7 14V31.5C7 35.3675 10.1325 38.5 14 38.5H28C31.8675 38.5 35 35.3675 35 31.5V14C35 10.1325 31.8675 7 28 7ZM31.5 31.5C31.5 33.425 29.925 35 28 35H14C12.075 35 10.5 33.425 10.5 31.5V14C10.5 12.075 12.075 10.5 14 10.5H28C29.925 10.5 31.5 12.075 31.5 14V31.5ZM16.625 27.195C16.625 29.575 18.585 31.5 21 31.5C23.415 31.5 25.375 29.575 25.375 27.195C25.375 25.2875 24.5875 24.7275 21 20.5625C17.3775 24.7625 16.625 25.305 16.625 27.195ZM14 14H28V17.5H14V14Z" fill="#F8FAF9"/>
</svg>
