<svg width="32" height="32" viewBox="0 0 32 32" fill="none" xmlns="http://www.w3.org/2000/svg">
<path d="M30.9903 22.4873C30.2525 21.8182 29.7114 20.9745 29.3671 20.0145C28.6538 18.0364 28.4817 10.1527 28.5309 5.64364V5.44C28.3341 1.16364 20.5868 0 15.9877 0C11.3885 0 3.64122 1.16364 3.44447 5.44V5.64364C3.49365 10.1527 3.32149 18.0364 2.60825 20.0145C2.26393 20.9745 1.72285 21.8182 0.985015 22.4873C0.370153 23.04 0.0258297 23.9127 0.00123525 24.8727C-0.0233593 25.8327 0.320964 26.7055 0.886637 27.3164L1.18177 27.6073C1.57528 28.0145 2.09177 28.2473 2.60825 28.2473C3.24771 28.2473 3.88717 27.8982 4.30527 27.2873C4.89554 26.4727 6.07608 25.0764 7.23202 25.0764C7.3058 25.0764 7.37958 25.0764 7.47796 25.1055C7.65012 25.1345 7.67472 25.1927 7.69931 25.2218C7.82229 25.4836 7.94526 26.3855 7.55175 28.2182C7.20742 29.7891 7.92066 31.4764 9.15039 31.9127C9.37174 31.9709 9.59309 32 9.81444 32C10.8966 32 11.8066 31.0691 12.0771 29.7018C12.5198 27.3455 14.1185 25.6873 16.0123 25.6873C17.8814 25.6873 19.5047 27.3455 19.9474 29.7018C20.1933 31.04 21.1279 32 22.2101 32C22.4314 32 22.6528 31.9709 22.8495 31.8836C24.0792 31.4182 24.7925 29.76 24.4482 28.1891C24.0547 26.3855 24.1776 25.4545 24.3006 25.1927C24.3252 25.1636 24.3498 25.1055 24.522 25.0764C24.5957 25.0764 24.6695 25.0473 24.7679 25.0473C25.9484 25.0473 27.1044 26.4436 27.6946 27.2582C28.1373 27.8691 28.7522 28.2182 29.3917 28.2182C29.9081 28.2182 30.4 27.9855 30.8181 27.5782L31.1133 27.2873C31.7035 26.7055 32.0233 25.8036 31.9987 24.8727C31.9741 23.9127 31.6298 23.04 31.0149 22.4873H30.9903ZM15.9877 3.02545C22.333 3.02545 24.1038 4.10182 24.5957 4.94545C23.2922 7.41818 19.3817 7.30182 15.9385 7.41818C12.3231 7.09818 8.92904 7.41818 7.37958 4.94545C7.87147 4.10182 9.64228 3.02545 15.9877 3.02545Z" fill="#1E7F43"/>
</svg>
