<svg width="22" height="22" viewBox="0 0 22 22" fill="none" xmlns="http://www.w3.org/2000/svg">
<path d="M8.47914 20.1663L8.11248 17.233C7.91387 17.1566 7.72686 17.065 7.55148 16.958C7.37609 16.8511 7.20406 16.7365 7.03539 16.6143L4.30831 17.7601L1.78748 13.4059L4.14789 11.6184C4.13261 11.5115 4.12498 11.4085 4.12498 11.3095V10.6908C4.12498 10.5911 4.13261 10.4879 4.14789 10.3809L1.78748 8.59342L4.30831 4.23926L7.03539 5.38509C7.20345 5.26287 7.37914 5.14829 7.56248 5.04134C7.74581 4.9344 7.92914 4.84273 8.11248 4.76634L8.47914 1.83301H13.5208L13.8875 4.76634C14.0861 4.84273 14.2734 4.9344 14.4494 5.04134C14.6254 5.14829 14.7971 5.26287 14.9646 5.38509L17.6916 4.23926L20.2125 8.59342L17.8521 10.3809C17.8673 10.4879 17.875 10.5911 17.875 10.6908V11.3086C17.875 11.4082 17.8597 11.5115 17.8291 11.6184L20.1896 13.4059L17.6687 17.7601L14.9646 16.6143C14.7965 16.7365 14.6208 16.8511 14.4375 16.958C14.2541 17.065 14.0708 17.1566 13.8875 17.233L13.5208 20.1663H8.47914ZM10.0833 18.333H11.8937L12.2146 15.9038C12.6882 15.7816 13.1276 15.6023 13.5327 15.3658C13.9379 15.1293 14.3082 14.8426 14.6437 14.5059L16.9125 15.4455L17.8062 13.8872L15.8354 12.3976C15.9118 12.1837 15.9653 11.9585 15.9958 11.722C16.0264 11.4855 16.0416 11.2447 16.0416 10.9997C16.0416 10.7546 16.0264 10.5141 15.9958 10.2783C15.9653 10.0424 15.9118 9.81687 15.8354 9.60176L17.8062 8.11217L16.9125 6.55384L14.6437 7.51634C14.3076 7.16495 13.9373 6.87101 13.5327 6.63451C13.1282 6.39801 12.6888 6.21834 12.2146 6.09551L11.9166 3.66634H10.1062L9.78539 6.09551C9.31178 6.21773 8.8727 6.3974 8.46814 6.63451C8.06359 6.87162 7.69295 7.15792 7.35623 7.49342L5.08748 6.55384L4.19373 8.11217L6.16456 9.57884C6.08817 9.80801 6.0347 10.0372 6.00414 10.2663C5.97359 10.4955 5.95831 10.74 5.95831 10.9997C5.95831 11.2441 5.97359 11.4809 6.00414 11.7101C6.0347 11.9393 6.08817 12.1684 6.16456 12.3976L4.19373 13.8872L5.08748 15.4455L7.35623 14.483C7.69234 14.8344 8.06298 15.1286 8.46814 15.3658C8.87331 15.6029 9.31239 15.7822 9.78539 15.9038L10.0833 18.333ZM11.0458 14.208C11.9319 14.208 12.6882 13.8948 13.3146 13.2684C13.9409 12.642 14.2541 11.8858 14.2541 10.9997C14.2541 10.1136 13.9409 9.35731 13.3146 8.73092C12.6882 8.10454 11.9319 7.79134 11.0458 7.79134C10.1444 7.79134 9.3842 8.10454 8.76514 8.73092C8.14609 9.35731 7.83686 10.1136 7.83748 10.9997C7.83809 11.8858 8.14761 12.642 8.76606 13.2684C9.3845 13.8948 10.1444 14.208 11.0458 14.208Z" fill="#626C70"/>
</svg>
