<svg width="22" height="22" viewBox="0 0 22 22" fill="none" xmlns="http://www.w3.org/2000/svg">
<g clip-path="url(#clip0_167_3994)">
<path d="M11 1.83301C5.93998 1.83301 1.83331 5.93967 1.83331 10.9997C1.83331 16.0597 5.93998 20.1663 11 20.1663C16.06 20.1663 20.1666 16.0597 20.1666 10.9997C20.1666 5.93967 16.06 1.83301 11 1.83301ZM11 4.58301C12.5216 4.58301 13.75 5.81134 13.75 7.33301C13.75 8.85467 12.5216 10.083 11 10.083C9.47831 10.083 8.24998 8.85467 8.24998 7.33301C8.24998 5.81134 9.47831 4.58301 11 4.58301ZM11 17.5997C8.70831 17.5997 6.68248 16.4263 5.49998 14.648C5.52748 12.8238 9.16665 11.8247 11 11.8247C12.8241 11.8247 16.4725 12.8238 16.5 14.648C15.3175 16.4263 13.2916 17.5997 11 17.5997Z" fill="#626C70"/>
</g>
<defs>
<clipPath id="clip0_167_3994">
<rect width="22" height="22" fill="white"/>
</clipPath>
</defs>
</svg>
